<svg xmlns="http://www.w3.org/2000/svg" xmlns:xlink="http://www.w3.org/1999/xlink" viewBox="0 0 332.5 185.91"><defs><style>.cls-1{fill:url(#linear-gradient);}.cls-2{fill:url(#linear-gradient-2);}.cls-3{fill:#662739;fill-rule:evenodd;}.cls-4{fill:#571828;}</style><linearGradient id="linear-gradient" x1="520.29" y1="403.25" x2="235.37" y2="304.78" gradientUnits="userSpaceOnUse"><stop offset="0.19" stop-color="#a6102b"/><stop offset="1" stop-color="#602739"/></linearGradient><linearGradient id="linear-gradient-2" x1="541.14" y1="342.92" x2="256.22" y2="244.44" xlink:href="#linear-gradient"/></defs><g id="Calque_3" data-name="Calque 3"><path class="cls-1" d="M423.64,344.35c-11.07-1.36-98.2,7-108.33,6.47-3.31-.11-9.44.33-9.44.33-3.85.14-4.6,5.19-2.4,7.13,0,0,3.08,1.76,8.72,1.07,6.55-1,90.12-6.49,96.78-8.68,4.59-.1,10.46-.33,15.2-2.45l2.33.21c3.4-2.19,9.19-.39,12.64-3.27A33.21,33.21,0,0,0,423.64,344.35Z" transform="translate(-247.86 -215.61)"/><path class="cls-2" d="M540.86,257.3c.25-1.45,1.52-3.25,1.52-4.93,0-3.69-2.5-8.65-6.07-10.61-1.36,1-3.54,0-5.3,1.14-6.35,7.14-6.73,20.31-7.58,33C508.3,294.6,492.82,313,476,330.07c2.88-18.88,10-39.95,15.55-57.6.73-2.34,1.83-6.58,1.52-8-.67-3.18-5.85-3.56-7.21-2.65-2.08,1.36-3.63,9.29-4.92,13.65s-2.78,10.2-4.17,14.4c-3.79,11.4-9.92,25.26-23.5,25.77-10.81-13.39,7.23-31.77.76-43.59-2.37-.76-3.26-.16-5.31.39-4.33,7.13-5.4,17.58-7.58,26.9-5.05,7.71-6.76,18.73-17.06,21.22-5-14.62,3.48-32,4.55-44.34-1.7-4.2-8.21-4.2-9.47.38a10.79,10.79,0,0,0-15.54-5.31c-7.8,4.43-9.92,17-10.37,18.7l-.2.66c-3.57,9.58-6.2,25.49-17.86,28.4-8.24-10.61-6.47-30.16-1.89-42.45,8.33-2,17.81-2.84,26.15-6.44,5.91-.66,13.46-1.65,19.32-4.93,1,0,6.83-1.33,6.83-1.33,3.41-2.19,9.2-.39,12.64-3.27a33.08,33.08,0,0,0-15.5-.8l-5.1.48c-14.43-.48-28.17,4.39-41.31,4.92,1.92-17.18,8.5-31.45,7.58-48.13,0,0-2.4-.82-4.54-1.52-1.62,1.14-3.17,1.77-4.18,3.41-7,11.31-7.77,34.18-11,47.76-5,.63-5.34,7.23-2.27,9.47a74.54,74.54,0,0,1-9.1,29.95c-2,3.63-9.85,18.19-15.16,17.43-2.46-.38-4.83-6.54-5.68-10.61-1.46-7.08-1-13.77-.38-20.85,10.45-13.36,15-34.83,12.88-54.19-2.9-2.28-6.54-1.15-9.09.75-7.14,11.28-9.6,27.67-12.51,42.45-9.32-.31-16.27,1.58-26.91,2.28-.79-10.3.25-20.94.38-31.09.15-11.62,1.89-25.26-5.69-32.59-1-.57-2.52-.5-3.41-1.14-5.62,4.2-9.13,10.59-12.88,16.68-1.2-.82-2.19-1.89-4.17-1.89-5,4-5.25,12.47-6.83,20.84-3.54,18.89-8.15,39.32-11.37,56.1-1.77,9.15-4.45,20.52-4.17,28,1.74,1.92,3,4.64,5.69,4.17,3.63-.67,2.53-7,5.31-9.1,2.49-11.62,4.45-21.41,6.82-33,7,.13,14.31-2.62,21.22-3.79.48,7.2.57,11.21,1.14,17.43.17,1.47.26,2,.52,3.81a96.79,96.79,0,0,1,2.51,15.9c1.74,2.47,4.68,6.76,8.72,4.55,3.75-12.79-4.8-28.71-3.41-44,9.16-2.37,18.57-6.45,26.15-9.1.16,5.78-9.35,6.19-10.61,11s3.95,8.81,9.47,5.69c-2.08,14.91,7.84,40,23.5,30.31,6.85-4.26,11.85-13.67,15.54-21.22,2.91,8.06,9.95,23.22,21.22,17.44,3.22-1.68,4.71-5.25,7.2-8.34,1,9.41,9.11,10.48,14.79,6.44,4-2.87,7.58-8.18,10.23-10.23,0,.41-.54.57,0,.76.54,7.32,3.89,12.41,9.86,13.26,9.63,1.36,15.28-8.84,19.32-14a15.79,15.79,0,0,0,11.76,9.48c6.44.85,9.73-3,14-4.56-3.38,8.69-2.5,16.71-5.69,24.64-1,2.59-3.88,5.24-5.68,8-7.68,11.43-16.55,24.92-12.89,42.07.93,2.1,1.51,4.05,3.79,5.31,3,.28,4.77.43,6.83-.76,8.08-12.07,11-28.9,14-44.35,1.08-5.58,3.86-8.39,7.21-12.51,15-18.38,32.5-35.4,46.62-53.06.44,9.73,2.4,23.25,3,32.22-2-1.33-2.27-4.32-3.41-6.44-.73.66.08-.36-.34-.47-1.26-3-1.09-4.18-4.59-4.08-1.48,1-1.83,3.22-3,4.55.28,10.29,8.08,18.34,18.57,20.84,5.4-4.35,3.86-10.17,2.65-17.43A260,260,0,0,1,532.52,277c2.3-2.52,3.7-6.25,5.31-9.86.63-1.41,2.24-2.58,2.65-3.78.13-.42-.57-1.05-.38-1.9s1.14-1,1.14-1.13C541.33,259.23,540.67,258.35,540.86,257.3Zm-203.92-5.82c-.28,7.23-3.45,15.67-4.81,23.55C332,267.05,335.24,260.11,336.94,251.48Zm-50.78,35c-6.34.34-11.78,2.87-18.19,3,4-20.94,9.64-40.15,18.58-56.09C287.78,251.55,286.42,270.76,286.16,286.49Zm123.18,9.85c.63,1.14.76,2.78,3,2.28-3.31,7.79-7,15.19-14.39,18.94,1.29-15.92,3-29.72,12.12-39C417.24,279.54,413.45,293.85,409.34,296.34Zm46.71,89.41c-1.14-2.88,1.26-5.53,1.9-8.72C458.55,379.66,456.43,382.85,456.05,385.75Z" transform="translate(-247.86 -215.61)"/><path class="cls-3" d="M447.53,263.27c2.17-2.22,4-3.82,4-3.82s5.87-4.63,1.22-8.94c-2.33-2.15-6.43-1.3-10.14.26,0,0-5,4-3.54,7.47C441.08,264.73,447.53,263.27,447.53,263.27Z" transform="translate(-247.86 -215.61)"/><path class="cls-3" d="M464.53,263.54c2.17-2.22,4-3.81,4-3.81s5.87-4.63,1.22-8.94c-2.33-2.16-6.42-1.3-10.14.25,0,0-5,4-3.54,7.47C458.08,265,464.53,263.54,464.53,263.54Z" transform="translate(-247.86 -215.61)"/></g><g id="Mode_Isolation" data-name="Mode Isolation"><path class="cls-4" d="M492,344.06a17.08,17.08,0,0,1,7.13,1.4,14,14,0,0,1,5.22,4.15l-3.47,4a12.26,12.26,0,0,0-4-3.45,11.07,11.07,0,0,0-5.07-1.1,8.49,8.49,0,0,0-3.13.49,3.89,3.89,0,0,0-1.81,1.31,3.12,3.12,0,0,0-.56,1.8,2.63,2.63,0,0,0,.95,2.05,7.61,7.61,0,0,0,3.24,1.38l5.55,1.26q4.41,1,6.33,2.95a6.94,6.94,0,0,1,1.91,5.07,8.3,8.3,0,0,1-1.53,5,9.64,9.64,0,0,1-4.28,3.2,17,17,0,0,1-6.31,1.1,20.86,20.86,0,0,1-5.7-.74,17.37,17.37,0,0,1-4.62-2.05,13.75,13.75,0,0,1-3.38-3l3.51-4.19a11.78,11.78,0,0,0,2.57,2.56,12.43,12.43,0,0,0,3.5,1.79,13.07,13.07,0,0,0,4.12.65,9.82,9.82,0,0,0,3.13-.43,4.16,4.16,0,0,0,1.94-1.22,3.05,3.05,0,0,0-.13-3.92,5.73,5.73,0,0,0-2.91-1.28l-6-1.35a18.24,18.24,0,0,1-4.48-1.65,7.28,7.28,0,0,1-2.84-2.61,7.2,7.2,0,0,1-1-3.81,8.31,8.31,0,0,1,1.44-4.78,9.81,9.81,0,0,1,4.17-3.36A15.85,15.85,0,0,1,492,344.06Z" transform="translate(-247.86 -215.61)"/><path class="cls-4" d="M516.41,344.51v29.75h-6.22V344.51Z" transform="translate(-247.86 -215.61)"/><path class="cls-4" d="M537.27,344.51c3.37,0,6,.82,7.94,2.44a9,9,0,0,1,0,13.23,12.31,12.31,0,0,1-7.89,2.32l-.63.36h-6.4v11.4h-6.13V344.51Zm-.72,13.62a6.07,6.07,0,0,0,3.9-1.06,4.79,4.79,0,0,0,0-6.54,6.07,6.07,0,0,0-3.9-1.06h-6.26v8.66Zm3.65,1.3,9.65,14.83h-7l-8-13Z" transform="translate(-247.86 -215.61)"/><path class="cls-4" d="M561,344.51v29.75h-6.21V344.51Zm16.36,12.22v5H557.91v-5Zm3-12.22v29.75h-6.22V344.51Z" transform="translate(-247.86 -215.61)"/></g></svg>